<svg width="30" height="30" fill="none" xmlns="http://www.w3.org/2000/svg"><path fill-rule="evenodd" clip-rule="evenodd" d="M15 0C6.716 0 0 6.716 0 15c0 8.284 6.716 15 15 15 8.284 0 15-6.716 15-15 0-8.284-6.716-15-15-15zM7.076 11.799h3.4v10.213h-3.4V11.8zm3.623-3.16c-.022-1.001-.738-1.764-1.9-1.764-1.164 0-1.924.763-1.924 1.764 0 .98.738 1.766 1.879 1.766h.022c1.185 0 1.923-.785 1.923-1.766zm8.121 2.92c2.237 0 3.914 1.46 3.914 4.597v5.856h-3.399v-5.464c0-1.372-.492-2.31-1.723-2.31-.939 0-1.498.632-1.744 1.242-.09.219-.112.523-.112.828v5.704h-3.4s.045-9.255 0-10.213h3.4v1.447c.451-.696 1.26-1.687 3.064-1.687z" fill="#000"/></svg>